Coordinates
version=1
nRows=23
nColumns=28
inDegrees=yes

Units are S.I. units (second, meters, Newtons, ...)
Angles are in degrees.

endheader
time	pelvis_tilt	pelvis_list	pelvis_rotation	pelvis_tx	pelvis_ty	pelvis_tz	hip_flexion_r	hip_adduction_r	hip_rotation_r	knee_angle_r	ankle_angle_r	subtalar_angle_r	mtp_angle_r	hip_flexion_l	hip_adduction_l	hip_rotation_l	knee_angle_l	socket_flexion	socket_adduction	socket_rotation	socket_tx	socket_ty	socket_tz	foot_flex	lumbar_extension	lumbar_bending	lumbar_rotation
      0.00000000	      1.00421284	    -15.17333628	    -13.18409334	     -0.75659880	      0.99308028	      0.34003473	    -22.77793195	     12.29618392	      0.43124633	    -11.64568012	      5.38174385	     10.47016676	     35.35651352	     25.76713678	    -16.78139199	     26.33040514	    -13.00688261	     -3.02464042	      2.27298273	    -17.66998018	      0.00000000	     -0.01201288	      0.00000000	     -1.16410430	    -16.89906455	     14.17658091	     22.14798435
      0.00416667	      0.93604144	    -15.22721942	    -13.15724211	     -0.75123588	      0.99218171	      0.33946270	    -22.88350878	     12.25770688	      0.47031275	    -11.86989934	      5.32713128	     10.45193614	     35.35851693	     25.58022957	    -16.73080760	     26.44164855	    -13.04543412	     -3.02861502	      2.22287347	    -17.62352487	      0.00000000	     -0.01272034	      0.00000000	     -1.26347647	    -16.74725020	     14.26461656	     22.17223318
      0.00833333	      0.85627902	    -15.34235639	    -13.14056188	     -0.74589983	      0.99125563	      0.33883227	    -22.88019094	     12.27444674	      0.40516847	    -12.29920325	      5.08577348	     10.34521093	     35.37145616	     25.37081051	    -16.76284707	     26.63786582	    -12.96764833	     -3.00529997	      2.16494701	    -17.58993433	      0.00000000	     -0.01368941	      0.00000000	     -1.82738501	    -16.68813379	     14.41892377	     22.25581651
      0.01250000	      0.55475859	    -15.44182583	    -13.23877086	     -0.74012205	      0.99014203	      0.33839237	    -22.76193077	     12.32170363	      0.65501795	    -12.55341097	      4.57841246	      9.87065760	     36.12510867	     25.05492367	    -16.95151592	     27.23243469	    -11.99851718	     -2.34257438	      2.01134158	    -18.11869507	      0.00000000	     -0.01496966	      0.00000000	     -2.10739448	    -16.31697999	     14.59741673	     22.47414888
      0.01666667	      0.48172632	    -15.46805731	    -13.19151242	     -0.73413555	      0.98923834	      0.33778145	    -22.87171401	     12.26878165	      0.73435645	    -12.78339196	      4.52365748	      9.86269697	     36.13177308	     24.85015176	    -16.86056997	     27.29710114	    -12.04351896	     -2.34892283	      1.97114788	    -18.04921998	      0.00000000	     -0.01581063	      0.00000000	     -2.24951728	    -16.13843959	     14.66774233	     22.46431839
      0.02083333	      0.40126328	    -15.47208825	    -13.17973141	     -0.72821297	      0.98841478	      0.33718924	    -22.87188714	     12.17677514	      0.76278065	    -13.18798753	      4.27732764	      9.77023997	     36.14244029	     24.62712985	    -16.78123116	     27.33654438	    -12.01955534	     -2.37091515	      1.89774116	    -17.90714558	      0.00000000	     -0.01670453	      0.00000000	     -2.81491205	    -16.02009910	     14.69886698	     22.40580860
      0.02500000	      0.30166699	    -15.44949383	    -13.18896834	     -0.72201870	      0.98758483	      0.33665299	    -22.85986502	     12.05402251	      0.76236512	    -13.58230065	      3.93944249	      9.60627196	     36.18230719	     24.39920957	    -16.68375623	     27.27257274	    -11.98628443	     -2.35078189	      1.82530346	    -17.78380808	      0.00000000	     -0.01763672	      0.00000000	     -3.15917042	    -15.81764089	     14.70325107	     22.32985141
      0.02916667	      0.20323106	    -15.40518255	    -13.15963707	     -0.71578107	      0.98682177	      0.33607537	    -22.85080682	     11.93997843	      0.83659574	    -13.95108619	      3.65248573	      9.46619392	     36.22743982	     24.18858736	    -16.54839602	     27.26281620	    -11.97049068	     -2.33569791	      1.76362781	    -17.64466359	      0.00000000	     -0.01847978	      0.00000000	     -3.46869183	    -15.61570606	     14.68934982	     22.27423101
      0.03333333	      0.12983207	    -15.40704620	    -13.08658136	     -0.70936325	      0.98607790	      0.33541196	    -22.91815598	     11.87774229	      0.93923102	    -14.23974672	      3.53033634	      9.42410337	     36.23790822	     23.96668224	    -16.42666378	     27.30687100	    -12.01518907	     -2.33032366	      1.73031820	    -17.56115369	      0.00000000	     -0.01940896	      0.00000000	     -3.58876098	    -15.40061584	     14.73129243	     22.25551230
      0.03750000	      0.00417643	    -15.26108145	    -13.12191292	     -0.70314761	      0.98549552	      0.33490289	    -22.72784481	     11.64702628	      0.91354366	    -14.82893563	      2.90267040	      9.04882486	     36.27968522	     23.77397826	    -16.22067452	     27.17878291	    -11.98233152	     -2.30323106	      1.66095829	    -17.43000870	      0.00000000	     -0.02014887	      0.00000000	     -4.10218631	    -15.18251203	     14.59280494	     22.10951311
      0.04166667	     -0.05615881	    -15.25193069	    -13.00808947	     -0.69661917	      0.98486719	      0.33421847	    -22.79566376	     11.59592611	      1.04568312	    -15.12195715	      2.79538830	      9.01324792	     36.29138056	     23.55176845	    -16.07781940	     27.22351731	    -12.04032447	     -2.27886761	      1.65515426	    -17.34697864	      0.00000000	     -0.02108610	      0.00000000	     -4.16196894	    -14.94801867	     14.63138831	     22.09396277
      0.04583333	     -0.32793045	    -14.83244423	    -13.02504193	     -0.69004543	      0.98431181	      0.33391397	    -22.41343268	     11.18952406	      1.03273860	    -15.64374620	      1.78370909	      7.95566113	     36.74512692	     23.53362355	    -15.61782919	     26.91463256	    -12.01919796	     -2.24588702	      1.54837786	    -17.08654759	      0.00000000	     -0.02141270	      0.00000000	     -4.48820270	    -14.41982703	     14.20760280	     21.76836132
      0.05000000	     -0.36663130	    -14.82429573	    -12.88743082	     -0.68358730	      0.98387610	      0.33318367	    -22.44263082	     11.15752627	      1.19880817	    -16.01295435	      1.64528330	      7.92020739	     36.76713162	     23.30878114	    -15.46649109	     26.97323918	    -12.09569044	     -2.21897680	      1.55970535	    -17.00403381	      0.00000000	     -0.02229745	      0.00000000	     -4.59764816	    -14.22295279	     14.23072366	     21.74477972
      0.05416667	     -0.53429869	    -14.44497530	    -12.86440170	     -0.67726587	      0.98357950	      0.33267098	    -22.05441801	     10.76109327	      1.11504909	    -16.70702598	      0.60618337	      6.95190569	     37.22427612	     23.26434000	    -14.98286683	     26.79460478	    -12.27960802	     -2.27635221	      1.54831983	    -16.88027835	      0.00000000	     -0.02253942	      0.00000000	     -4.87956828	    -13.86632652	     13.85137001	     21.42858529
      0.05833333	     -0.71165411	    -14.19696254	    -12.72302531	     -0.67087148	      0.98320892	      0.33206476	    -21.77647331	     10.56694825	      1.18366696	    -17.21500396	     -0.20945486	      6.06178864	     38.30812403	     23.32949348	    -14.57799606	     26.68951701	    -12.67198880	     -2.43824004	      1.60383094	    -16.63451640	      0.00000000	     -0.02288646	      0.00000000	     -5.08626367	    -13.47201101	     13.61724717	     21.11384663
      0.06250000	     -0.71546622	    -14.07600605	    -12.64467807	     -0.66480831	      0.98317569	      0.33130038	    -21.55984389	     10.39786271	      1.24754950	    -17.98229038	     -0.77428243	      5.83970542	     38.41870788	     23.11100689	    -14.31867053	     26.65334080	    -12.83940701	     -2.43054345	      1.64607789	    -16.63070996	      0.00000000	     -0.02345414	      0.00000000	     -5.26658680	    -13.39777087	     13.49436972	     20.98438833
      0.06666667	     -0.85807622	    -13.64934341	    -12.38199253	     -0.65828598	      0.98285776	      0.33047274	    -21.17080741	      9.99822980	      0.83029184	    -18.58687491	     -2.15584400	      5.08106293	     42.03568704	     23.35607418	    -13.61339515	     26.34731857	    -13.76019133	     -2.90755597	      1.74635296	    -16.18065679	      0.00000000	     -0.02335968	      0.00000000	     -5.35950668	    -12.94366348	     13.07936415	     20.56680588
      0.07083333	     -0.84618411	    -13.36166962	    -12.22150966	     -0.65207602	      0.98299474	      0.32980561	    -20.90289392	      9.70588973	      0.75082298	    -19.37882730	     -2.80884081	      4.70334994	     41.93977558	     23.12485792	    -13.18419935	     26.26472150	    -13.84389944	     -2.84037932	      1.78477940	    -16.16096854	      0.00000000	     -0.02369685	      0.00000000	     -5.47707883	    -12.78748533	     12.73904581	     20.35593174
      0.07500000	     -0.85095517	    -12.97179258	    -12.02536076	     -0.64583370	      0.98319872	      0.32915943	    -20.56634290	      9.33251352	      0.59113140	    -20.20599027	     -3.54343789	      4.19161355	     41.87256384	     22.94521566	    -12.64241417	     26.15421604	    -13.97611756	     -2.80465973	      1.82878759	    -16.10017448	      0.00000000	     -0.02376854	      0.00000000	     -5.56725295	    -12.57101297	     12.29407286	     20.05685410
      0.07916667	     -0.83130140	    -12.65193956	    -11.85756339	     -0.63968448	      0.98345651	      0.32851333	    -20.21857441	      9.00674588	      0.46512168	    -21.11637453	     -4.27713749	      3.76635736	     41.81995428	     22.73963599	    -12.18095252	     26.04544844	    -14.15030225	     -2.79183570	      1.91926302	    -16.06039477	      0.00000000	     -0.02398996	      0.00000000	     -5.64795871	    -12.42972696	     11.92496954	     19.77943138
      0.08333333	     -0.82799076	    -12.18654739	    -11.60365368	     -0.63336817	      0.98376482	      0.32785762	    -19.82242052	      8.57236521	      0.19334314	    -22.01436032	     -5.10574958	      3.19798548	     41.81399132	     22.59930721	    -11.54331504	     25.87776197	    -14.37655692	     -2.81035108	      1.98593367	    -15.94557583	      0.00000000	     -0.02389635	      0.00000000	     -5.69746199	    -12.17954652	     11.38263417	     19.42759564
      0.08750000	     -0.78232467	    -11.84999021	    -11.41719944	     -0.62735884	      0.98417468	      0.32718650	    -19.40151592	      8.23038814	      0.01867459	    -23.07152201	     -5.89266170	      2.78452173	     41.79843060	     22.40111744	    -11.05891919	     25.72649009	    -14.61896763	     -2.82466763	      2.09450256	    -15.87434502	      0.00000000	     -0.02393541	      0.00000000	     -5.75085020	    -12.08554868	     10.98396865	     19.12289368
      0.09166667	     -0.72365377	    -11.66123176	    -11.16049257	     -0.62148134	      0.98464356	      0.32654832	    -19.08018089	      8.12098574	      0.12512109	    -24.00858304	     -6.43032044	      2.60508967	     41.75123842	     22.16220289	    -10.74873066	     25.74663741	    -14.72958174	     -2.76855168	      2.21939045	    -15.69996776	      0.00000000	     -0.02417703	      0.00000000	     -5.78820000	    -12.06449337	     10.71262893	     18.96802642
